# Blender v2.77 (sub 0) OBJ File: 'catmouse2.blend'
# www.blender.org
mtllib cat.mtl
o cat_Plane.002
v -0.714891 0.757689 5.795216
v 0.714891 0.757689 5.795216
v -0.714891 0.757689 4.481343
v 0.714891 0.757689 4.481343
v -0.714891 2.132355 5.709246
v 0.714891 2.132355 5.709247
v -0.714891 1.981732 4.481344
v 0.714891 1.981732 4.481344
v -0.801848 0.681404 4.729458
v -0.801848 0.681404 5.268559
v -0.293330 0.681404 5.875123
v 0.293330 0.681404 5.875123
v 0.801848 0.681404 5.268558
v 0.801848 0.681404 4.729459
v 0.293330 0.681404 4.401436
v -0.293330 0.681404 4.401436
v -0.871867 2.216742 4.707719
v -0.871867 2.247007 5.204329
v -0.293330 2.208641 5.789153
v 0.293330 2.208641 5.789153
v 0.871867 2.247007 5.204329
v 0.871867 2.216742 4.707719
v 0.293330 2.058017 4.401436
v -0.293330 2.058017 4.401436
v 0.801848 1.069878 5.729960
v 0.801848 1.584538 5.729960
v -0.801848 1.584538 5.729960
v -0.801848 1.069878 5.729960
v 0.801848 1.069878 4.401436
v 0.801848 1.584538 4.401437
v -0.801848 1.584538 4.401437
v -0.801848 1.069878 4.401436
v 0.310160 1.055113 4.197064
v 0.310160 1.599303 4.197064
v -0.310160 1.055113 4.197064
v -0.310160 1.599303 4.197064
v -1.024249 1.055113 4.713992
v -1.024249 1.599303 4.713992
v -1.024249 1.055113 5.284024
v -1.024249 1.599303 5.284024
v 1.024249 1.055113 5.284024
v 1.024249 1.599303 5.284024
v 1.024249 1.055113 4.713992
v 1.024249 1.599303 4.713992
v -0.191179 1.159492 6.312154
v -0.191179 1.494924 6.312154
v 0.191179 1.159492 6.312154
v 0.191179 1.494924 6.312154
v -0.307623 2.425367 5.218102
v -0.307623 2.395101 4.693946
v 0.307623 2.425367 5.218102
v 0.307623 2.395101 4.693947
v -0.310160 0.486297 5.284024
v 0.310160 0.486297 5.284024
v -0.310160 0.486297 4.713992
v 0.310160 0.486297 4.713992
v -0.885913 3.026173 4.964403
v -0.885913 2.999076 5.052122
v 0.885913 2.999076 5.052123
v 0.885913 3.026173 4.964403
v -0.617889 3.062199 5.047349
v -0.617889 3.089328 4.960074
v 0.617889 3.062199 5.047349
v 0.617889 3.089328 4.960074
v 0.221117 0.531186 0.248537
v -0.221117 0.914475 0.248537
v 0.221117 0.914475 0.248537
v 0.221117 0.531186 -4.276975
v -0.221117 0.531186 -4.276975
v 0.221117 0.914475 -1.259967
v -0.221117 0.531186 -1.259967
v 0.221117 0.531186 -1.259967
v -0.221117 0.914475 -1.259967
v 0.221117 0.531186 -2.768471
v -0.221117 0.531186 0.248537
v 0.221117 0.914475 -2.768471
v -0.221117 0.531186 -2.768471
v -0.221117 0.914475 -2.768471
v -0.221117 0.914475 -4.276975
v 0.221117 0.914475 -4.276975
v 0.000000 1.252781 0.000000
v 0.000000 1.049858 4.746417
v 1.134443 1.233014 3.108812
v -1.134443 0.066426 3.108812
v 0.000000 2.237512 3.108812
v 0.000000 -0.095664 3.108812
v 0.000000 -0.036596 0.735603
v 0.000000 2.371023 0.735603
v -1.263543 0.130666 0.735603
v 1.263543 1.334475 0.735603
v 1.263543 0.130666 0.735603
v -1.263543 1.334475 0.735603
v -1.134443 1.233014 3.108812
v 1.134443 0.066426 3.108812
v 0.000000 0.116822 4.746417
v 0.000000 0.245302 0.000000
v -0.834310 0.216643 0.183901
v 0.000000 0.104836 0.183901
v 0.834310 1.273204 0.183901
v 0.000000 1.966089 0.183901
v -0.672936 0.104223 4.337016
v 0.000000 -0.001119 4.337016
v 0.672936 1.095647 4.337016
v 0.000000 1.748470 4.337016
v 0.850832 1.986387 3.108812
v 0.947657 0.005220 0.735603
v -0.850832 -0.055141 3.108812
v -0.947657 2.111886 0.735603
v 0.947657 2.111886 0.735603
v 0.850832 -0.055141 3.108812
v -0.947657 0.005220 0.735603
v -0.850832 1.986387 3.108812
v 0.000000 -0.122320 1.696706
v 0.000000 2.463018 1.696706
v -1.344614 1.349957 1.696706
v 1.344614 0.057288 1.696706
v -0.834310 1.273204 0.183901
v 0.834310 0.216643 0.183901
v -0.672936 1.095647 4.337016
v 0.672936 0.104223 4.337016
v -1.344614 0.057288 1.696706
v 1.344614 1.349957 1.696706
v 1.263543 0.515249 0.735603
v -1.263543 0.515249 0.735603
v -1.134443 0.439118 3.108812
v 1.134443 0.439118 3.108812
v 0.000000 0.414901 4.746417
v 0.000000 0.567163 0.000000
v -0.651592 0.107491 0.326935
v 0.651592 0.107491 0.326935
v -0.651592 1.827382 0.326935
v 0.651592 1.827382 0.326935
v -0.551181 0.011585 4.018593
v 0.551181 0.011585 4.018593
v -0.551181 1.644626 4.018593
v 0.551181 1.644626 4.018593
v 1.008461 2.184752 1.696706
v 1.008461 -0.077418 1.696706
v -1.008461 -0.077418 1.696706
v -1.008461 2.184752 1.696706
v -0.834310 0.554184 0.183901
v 0.834310 0.554184 0.183901
v -0.672936 0.420955 4.337016
v 0.672936 0.420955 4.337016
v -1.344614 0.470259 1.696706
v 1.344614 0.470259 1.696706
vn 0.1723 -0.9516 -0.2543
vn 0.1517 -0.6777 -0.7195
vn 0.4878 -0.5909 -0.6425
vn 0.6340 -0.7342 -0.2429
vn -0.1030 0.7612 -0.6402
vn 0.7603 0.3435 -0.5512
vn 0.4671 0.4025 -0.7872
vn 0.1330 0.5169 -0.8456
vn 0.3077 0.2471 0.9188
vn 0.7792 0.1452 0.6096
vn 0.6092 0.5602 0.5612
vn 0.2163 0.7497 0.6253
vn 0.9418 0.1198 -0.3141
vn 0.5966 0.1381 -0.7906
vn -0.9695 0.1136 0.2171
vn -0.7792 0.1452 0.6096
vn -0.6092 0.5602 0.5612
vn -0.8361 0.3813 0.3942
vn -0.1774 0.1888 -0.9658
vn -0.5966 0.1381 -0.7906
vn -0.4671 0.4025 -0.7872
vn -0.1330 0.5169 -0.8456
vn 0.1774 0.1888 -0.9658
vn 0.1780 -0.2261 -0.9577
vn 0.6138 -0.2071 -0.7618
vn -0.1517 -0.6777 -0.7195
vn -0.1780 -0.2261 -0.9577
vn -0.4878 -0.5909 -0.6425
vn -0.6138 -0.2071 -0.7618
vn -0.9418 0.1198 -0.3141
vn -0.7603 0.3435 -0.5512
vn -0.6340 -0.7342 -0.2429
vn -0.9299 -0.2410 -0.2779
vn -0.6556 -0.7407 0.1468
vn -0.9541 -0.2267 0.1955
vn -0.5883 -0.6185 0.5209
vn -0.7951 -0.1967 0.5737
vn 0.9695 0.1136 0.2171
vn 0.8361 0.3813 0.3942
vn 0.5883 -0.6185 0.5209
vn 0.6556 -0.7407 0.1468
vn 0.9541 -0.2267 0.1955
vn 0.7951 -0.1967 0.5737
vn 0.9299 -0.2410 -0.2779
vn -0.3077 0.2471 0.9188
vn -0.2163 0.7497 0.6253
vn -0.2286 -0.7828 0.5787
vn -0.3050 -0.2834 0.9092
vn 0.2286 -0.7828 0.5787
vn 0.3050 -0.2834 0.9092
vn 0.1030 0.7612 -0.6402
vn 0.1298 0.9069 0.4006
vn -0.6724 0.4606 0.5793
vn -0.6667 0.6441 -0.3750
vn -0.1298 0.9069 0.4006
vn -0.3649 0.7301 0.5777
vn -0.3173 0.8576 -0.4047
vn 0.1699 -0.9749 0.1436
vn -0.1699 -0.9749 0.1436
vn -0.1723 -0.9516 -0.2543
vn 0.3649 0.7301 0.5777
vn 0.3173 0.8576 -0.4047
vn 0.6724 0.4606 0.5793
vn 0.6667 0.6441 -0.3750
vn -0.5773 -0.5773 0.5773
vn 0.5773 -0.5773 0.5773
vn 0.5773 0.5773 0.5773
vn -0.5773 0.5773 0.5773
vn 0.7071 0.7071 0.0000
vn -0.7071 0.7071 0.0000
vn -0.7071 -0.7071 0.0000
vn 0.7071 -0.7071 0.0000
vn -0.5773 -0.5773 -0.5773
vn -0.5773 0.5773 -0.5773
vn 0.5773 0.5773 -0.5773
vn 0.5773 -0.5773 -0.5773
vn 0.0000 0.1372 -0.9905
vn 0.0000 0.0000 -1.0000
vn -0.5340 0.0000 -0.8455
vn -0.5259 0.1513 -0.8369
vn -0.4106 0.4847 -0.7723
vn 0.0000 0.5604 -0.8282
vn 0.4106 0.4847 -0.7723
vn 0.5259 0.1513 -0.8369
vn 0.5340 0.0000 -0.8455
vn 0.0000 0.2503 0.9681
vn -0.7333 0.2177 0.6441
vn -0.7701 0.0000 0.6379
vn 0.0000 0.0000 1.0000
vn 0.7701 0.0000 0.6379
vn 0.7333 0.2177 0.6441
vn 0.5924 0.6211 0.5131
vn 0.0000 0.7315 0.6818
vn -0.5924 0.6211 0.5131
vn 0.9471 0.1828 0.2636
vn 0.9680 0.0000 0.2509
vn 0.9995 0.0000 0.0318
vn 0.9810 0.1908 0.0348
vn 0.6669 0.7442 0.0381
vn 0.6500 0.7033 0.2877
vn -0.8127 -0.5409 0.2164
vn -0.9680 0.0000 0.2509
vn -0.9995 0.0000 0.0318
vn -0.8351 -0.5500 0.0071
vn -0.2216 -0.9747 -0.0274
vn -0.2205 -0.9714 0.0875
vn -0.1951 -0.9681 0.1571
vn -0.6387 -0.5334 0.5545
vn 0.0000 0.9605 0.2781
vn 0.0000 0.9994 0.0343
vn -0.6669 0.7442 0.0381
vn -0.6500 0.7033 0.2877
vn 0.0000 -0.9987 0.0515
vn 0.0000 -0.9994 -0.0344
vn 0.2216 -0.9747 -0.0274
vn 0.2205 -0.9714 0.0875
vn 0.1951 -0.9681 0.1571
vn 0.0000 -0.9804 0.1970
vn 0.0000 -0.9846 -0.1748
vn -0.2138 -0.9507 -0.2246
vn -0.1394 -0.9020 -0.4086
vn 0.0000 -0.8988 -0.4383
vn 0.1394 -0.9020 -0.4086
vn 0.2138 -0.9507 -0.2246
vn 0.0000 0.9315 -0.3636
vn 0.6194 0.6926 -0.3696
vn -0.6194 0.6926 -0.3696
vn -0.7887 -0.5109 -0.3417
vn -0.9313 0.0000 -0.3641
vn -0.4633 -0.4412 -0.7685
vn 0.9117 0.1857 -0.3665
vn 0.9313 0.0000 -0.3641
vn 0.7887 -0.5109 -0.3417
vn 0.4633 -0.4411 -0.7685
vn 0.8351 -0.5500 0.0071
vn -0.9117 0.1857 -0.3665
vn -0.9810 0.1908 0.0348
vn -0.9471 0.1828 0.2636
vn 0.8127 -0.5409 0.2164
vn 0.6387 -0.5334 0.5545
vn 0.0000 -0.5246 0.8513
vn 0.0000 -0.4338 -0.9010
usemtl None
s 1
f 56//1 15//2 4//3 14//4
f 52//5 22//6 8//7 23//8
f 48//9 26//10 6//11 20//12
f 44//13 30//14 8//7 22//6
f 40//15 27//16 5//17 18//18
f 36//19 31//20 7//21 24//22
f 30//14 34//23 23//8 8//7
f 34//23 36//19 24//22 23//8
f 4//3 15//2 33//24 29//25
f 29//25 33//24 34//23 30//14
f 15//2 16//26 35//27 33//24
f 33//24 35//27 36//19 34//23
f 16//26 3//28 32//29 35//27
f 35//27 32//29 31//20 36//19
f 31//20 38//30 17//31 7//21
f 38//30 40//15 18//18 17//31
f 3//28 9//32 37//33 32//29
f 32//29 37//33 38//30 31//20
f 9//32 10//34 39//35 37//33
f 37//33 39//35 40//15 38//30
f 10//34 1//36 28//37 39//35
f 39//35 28//37 27//16 40//15
f 26//10 42//38 21//39 6//11
f 42//38 44//13 22//6 21//39
f 2//40 13//41 41//42 25//43
f 25//43 41//42 42//38 26//10
f 13//41 14//4 43//44 41//42
f 41//42 43//44 44//13 42//38
f 14//4 4//3 29//25 43//44
f 43//44 29//25 30//14 44//13
f 27//16 46//45 19//46 5//17
f 46//45 48//9 20//12 19//46
f 1//36 11//47 45//48 28//37
f 28//37 45//48 46//45 27//16
f 11//47 12//49 47//50 45//48
f 45//48 47//50 48//9 46//45
f 12//49 2//40 25//43 47//50
f 47//50 25//43 26//10 48//9
f 17//31 50//51 24//22 7//21
f 50//51 52//5 23//8 24//22
f 5//17 19//46 49//52 18//18
f 17//31 18//18 58//53 57//54
f 19//46 20//12 51//55 49//52
f 49//52 51//55 52//5 50//51
f 20//12 6//11 21//39 51//55
f 52//5 51//55 63//56 64//57
f 12//49 54//58 13//41 2//40
f 54//58 56//1 14//4 13//41
f 1//36 10//34 53//59 11//47
f 11//47 53//59 54//58 12//49
f 10//34 9//32 55//60 53//59
f 53//59 55//60 56//1 54//58
f 9//32 3//28 16//26 55//60
f 55//60 16//26 15//2 56//1
f 58//53 61//61 62//62 57//54
f 63//56 59//63 60//64 64//57
f 51//55 21//39 59//63 63//56
f 18//18 49//52 61//61 58//53
f 49//52 50//51 62//62 61//61
f 22//6 52//5 64//57 60//64
f 50//51 17//31 57//54 62//62
f 21//39 22//6 60//64 59//63
f 75//65 65//66 67//67 66//68
f 66//68 67//67 70//69 73//70
f 65//66 75//65 71//71 72//72
f 67//67 65//66 72//72 70//69
f 75//65 66//68 73//70 71//71
f 73//70 70//69 76//69 78//70
f 72//72 71//71 77//71 74//72
f 70//69 72//72 74//72 76//69
f 71//71 73//70 78//70 77//71
f 69//73 79//74 80//75 68//76
f 77//71 78//70 79//74 69//73
f 76//69 74//72 68//76 80//75
f 74//72 77//71 69//73 68//76
f 78//70 76//69 80//75 79//74
f 81//77 128//78 141//79 117//80
f 81//77 117//80 131//81 100//82
f 81//77 100//82 132//83 99//84
f 81//77 99//84 142//85 128//78
f 82//86 119//87 143//88 127//89
f 82//86 127//89 144//90 103//91
f 82//86 103//91 136//92 104//93
f 82//86 104//93 135//94 119//87
f 83//95 126//96 146//97 122//98
f 83//95 122//98 137//99 105//100
f 83//95 105//100 136//92 103//91
f 83//95 103//91 144//90 126//96
f 84//101 125//102 145//103 121//104
f 84//101 121//104 139//105 107//106
f 84//101 107//106 133//107 101//108
f 84//101 101//108 143//88 125//102
f 85//109 105//100 137//99 114//110
f 85//109 114//110 140//111 112//112
f 85//109 112//112 135//94 104//93
f 85//109 104//93 136//92 105//100
f 86//113 107//106 139//105 113//114
f 86//113 113//114 138//115 110//116
f 86//113 110//116 134//117 102//118
f 86//113 102//118 133//107 107//106
f 87//119 111//120 129//121 98//122
f 87//119 98//122 130//123 106//124
f 87//119 106//124 138//115 113//114
f 87//119 113//114 139//105 111//120
f 88//125 109//126 132//83 100//82
f 88//125 100//82 131//81 108//127
f 88//125 108//127 140//111 114//110
f 88//125 114//110 137//99 109//126
f 89//128 124//129 141//79 97//130
f 89//128 97//130 129//121 111//120
f 89//128 111//120 139//105 121//104
f 89//128 121//104 145//103 124//129
f 90//131 123//132 142//85 99//84
f 90//131 99//84 132//83 109//126
f 90//131 109//126 137//99 122//98
f 90//131 122//98 146//97 123//132
f 91//133 106//124 130//123 118//134
f 91//133 118//134 142//85 123//132
f 91//133 123//132 146//97 116//135
f 91//133 116//135 138//115 106//124
f 92//136 108//127 131//81 117//80
f 92//136 117//80 141//79 124//129
f 92//136 124//129 145//103 115//137
f 92//136 115//137 140//111 108//127
f 93//138 112//112 140//111 115//137
f 93//138 115//137 145//103 125//102
f 93//138 125//102 143//88 119//87
f 93//138 119//87 135//94 112//112
f 94//139 110//116 138//115 116//135
f 94//139 116//135 146//97 126//96
f 94//139 126//96 144//90 120//140
f 94//139 120//140 134//117 110//116
f 95//141 101//108 133//107 102//118
f 95//141 102//118 134//117 120//140
f 95//141 120//140 144//90 127//89
f 95//141 127//89 143//88 101//108
f 96//142 98//122 129//121 97//130
f 96//142 97//130 141//79 128//78
f 96//142 128//78 142//85 118//134
f 96//142 118//134 130//123 98//122
